<svg xmlns="http://www.w3.org/2000/svg" fill="currentColor" viewBox="0 0 960 960"><path d="M527.933 1.77c85.81 8.32 161.75 34.65 230.87 80.06 9.04 5.87 16.13 10.87 15.86 11.11-.28.28-6.12-2.92-12.94-7.04-6.68-4.19-15.16-8.79-18.77-10.35-3.48-1.64-11.68-4.83-10.22-4.23 20.14 8.23-56.82-23.51-83.53-29.9-56.32-13.83-130.18-15.75-188.31-5-12.52 2.44-49.65 11.51-53.55 13.31-1.53.64-6.95 2.68-12.24 4.36-10.43 3.56-13.99 5.07-32.68 13.15-7.09 3.08-19.19 8.83-25.04 11.91-5.84 3.08-17.24 9.71-25.31 14.71-11.4 7.15-17.37 10.51-17.39 10.59s-19.88 14.99-25.03 19.06c-4.31 3.48-6.38 4.76-20.72 18.03-9.66 8.95-1.15.72-18.78 18.3-1.87 1.88-7.09 7.56-11.26 12.67a345 345 0 0 1-9.18 10.76c-3.48 3.31-22.25 28.05-27.95 37.64-1.67 2.8-2.82 3.68-18.51 33.82-.42.84-17.24 43.24-19.47 51.44-9.46 32.85-13.63 56.27-15.16 86.33-1.11 19.7-.14 52.95 1.53 54.47.42.24 4.17-3.59 8.35-8.43 30.87-35.81 77.19-71.38 128.79-98.88 4.86-2.68 8.9-4.72 9.18-4.72.27 0-4.59 4.72-10.85 10.47-119.47 111.79-161.89 264.39-112.66 405.2 3.34 9.47 5.7 17.5 5.29 17.78-1.25 1.28-38.11-34.53-52.72-51.31-57.44-65.99-90.95-139.13-103.05-226.1-2.93-20.98-3.34-72.54-.84-94.65 11.68-99.76 58.69-192.48 132.82-262.07 31.57-29.53 60.37-50.91 95.14-70.22 65.36-36.45 129.76-55.75 210.43-63.31 14.04-1.4 70.79-.64 87.9 1.04m-93.47 133.89c20.86 12.27 43.95 21.87 119.61 49.64 54.94 20.19 76.64 29.02 114.75 46.57 33.65 15.46 47.28 22.86 63.69 34.25 40.2 28.02 68.57 66.51 81.5 110.39 1.26 4.08 3.06 6.12 9.46 10.23 10.71 6.92 27.541 20.07 34.912 27.38 25.868 25.3 33.657 46.28 27.398 73.66-2.921 12.39-13.213 35.41-13.213 29.42 0-5.4-8.065-18.19-16.132-25.58-27.255-25.34-83.725-46.56-152.155-57.04-26.98-4.23-65.65-4.35-85.53-.28-40.48 8.44-74.41 27.26-100.56 55.92-7.79 8.43-22.53 28.62-22.53 30.81 0 .24-2.09 4.72-4.73 9.84-9.04 17.9-16.13 45.92-16.13 63.95 0 26.97 7.37 58.95 25.03 108.47 3.76 10.87 8.76 24.94 10.99 31.33 18.91 53.44 23.23 91.81 14.46 126.221l-2.36 9.352-1.25-5.755c-6.4-30.458-22.81-58.588-58.83-101.678-49.94-59.59-67.18-93.76-71.49-140.97-.84-9.31-1.25-17.5-.84-18.14.56-.64.28-1.52-.41-1.92-2.79-1.68-18.36 26.1-25.73 45.64-3.76 9.88-11.83 38.53-12.1 42.73-.28 3.95-6.68-21.22-9.6-37.33-9.46-54.48-5.56-100.8 11.82-140.69 23.92-54.48 65.37-93.24 136.3-127.54 8.48-4.07 14.47-7.39 13.49-7.39-4.03 0-31.15 5.63-46.59 9.71-37.83 10.11-71.77 25.18-100.83 44.89-5.57 3.83-19.34 14.34-28.24 22.26-8.9 8.07-19.89 19.06-24.62 24.42-59.94 70.22-80.66 179.17-53.68 283.69 7.23 28.14 22.39 69.82 33.1 91.447 1.11 2.038 3.62 7.554 5.7 12.15 10.15 22.502 34.91 64.708 54.8 93.365 3.48 4.996-15.86-11.151-34.35-28.657-56.61-53.837-106.54-127.775-127.4-188.525-16.97-49.48-21-121.39-9.88-175.1 4.87-23.78 20.03-67.51 27.82-80.94 1.11-1.8 4.59-8.43 7.79-14.71 31.15-60.63 91.51-122.42 155.35-158.99 17.11-9.83 45.34-23.38 59.25-28.38l8.21-3.07-3.34-1.92c-18.36-11.11-36.02-33.89-40.89-52.84-2.36-9.43-2.78-28.26-.56-36.17l1.53-5.64 6.96 8.56c33.52 40.93 93.46 71.62 184 94.28 10.02 2.44 20.03 5 22.25 5.64 2.37.76 18.22 4.47 35.47 8.43 43.81 9.95 39.64 8.19 43.12 18.27 6.95 19.46 15.3 30.69 28.23 37.89 25.59 13.91 37.11 22.02 37.83 22.5.13 1.2 9.32 4.99 14.32 11.75 5.15 7.31 5.57 3.71.84-8.83-4.73-12.79-10.15-23.67-18.22-36.7-18.77-30.05-32.96-38.76-94.44-58.31-101.8-32.25-126.14-41.21-159.8-58.19-9.46-4.88-28.37-16.51-35.47-21.74-8.9-6.68-22.25-20.11-28.65-28.78-10.43-14.47-14.74-27.5-15.58-47.32l-.69-15.87 8.21 6.91c4.59 3.72 12.93 9.6 18.63 13.03M958.94 460.92c-5.146 90.93-35.188 168.43-94.296 243.53-25.591 32.45-70.511 72.74-108.901 97.56-43.67 28.25-103.2 53.715-152.99 65.625-5.7 1.399-12.1 4.077-17.38 7.674-8.21 5.356-32.69 17.266-35.47 17.266-.83 0-.56-1.918.84-4.876 3.61-7.794 8.48-21.982 11.12-32.853 3.2-12.79 3.62-50.796.7-67.146-4.31-24.82-12.66-51.68-32.55-103.6-24.62-64.86-27.68-99.64-11.4-131.37 10.98-21.34 32.68-40.77 63.97-57.28 5.15-2.67 6.4-2.95 4.6-1.15-3.34 3.59-10.58 17.14-14.89 28.13-2.08 5.24-4.73 14.83-5.56 18.31-6.96 30.05-10.34 72.06 9.6 108.55.21.4 3.67 15.03 8.93 24.3 5.17 9.15 12.49-8.55 16.8-26.34.55-2.43 1.53-3.83 2.08-3.19.56.52 4.87 7.55 9.6 15.62 13.63 23.02 22.39 43.73 27.26 64.71 2.78 11.75 4.03 37.45 2.36 47.96-.69 4.6-1.11 8.67-.83 9.2.42.51 3.61 0 7.23-.88 3.62-1.04 6.54-1.8 6.54-1.68 0 .52 27.4-7.68 37.27-11.23 6.68-2.44 54.66-22.79 55.63-23.55.98-.63 10.43-6.67 21.14-13.07 25.87-15.82 43.54-28.89 65.37-48.44 12.38-11.15 21.003-20.34 26.149-25.86 10.013-10.59 27.259-32.09 33.657-41.68 9.457-14.31 12.656-19.43 17.246-27.9 7.371-13.55 14.743-28.62 18.22-37.21 1.391-3.2 5.007-12.79 8.206-21.46 4.311-12.15 10.57-34.53 13.351-47.84 2.504-12.55 5.285-35.17 6.537-53.08.139-3.08.278-2.84.835 1.28.278 2.8-.139 17.14-.974 31.97"/></svg>
